# Blender v2.74 (sub 0) OBJ File: ''
# www.blender.org
mtllib B-Plasma.mtl
o the_node.006_tri_288_geometry.001
v 0.065857 0.014149 -0.092097
v 0.098786 0.071183 -0.092097
v 0.065857 0.080006 -0.092097
v 0.065857 0.014149 -0.092097
v 0.065857 0.014149 0.039617
v 0.098786 0.014149 0.021971
v 0.065857 0.014149 -0.092097
v 0.065857 0.071183 -0.026240
v 0.065857 0.047078 0.021971
v 0.065857 0.014149 -0.092097
v 0.122891 0.047078 -0.092097
v 0.098786 0.071183 -0.092097
v 0.065857 0.014149 -0.092097
v 0.098786 0.014149 0.021971
v 0.122891 0.014149 -0.026240
v 0.065857 0.014149 -0.092097
v 0.065857 0.047078 0.021971
v 0.065857 0.014149 0.039617
v 0.065857 0.014149 -0.092097
v 0.131715 0.014149 -0.092097
v 0.122891 0.047078 -0.092097
v 0.065857 0.014149 -0.092097
v 0.122891 0.014149 -0.026240
v 0.131715 0.014149 -0.092097
v 0.065857 0.014149 -0.092097
v 0.065857 -0.018780 0.021971
v 0.065857 -0.042885 -0.026240
v 0.065857 0.014149 -0.092097
v 0.122891 0.014149 -0.026240
v 0.098786 0.014149 0.021971
v 0.065857 0.014149 -0.092097
v 0.098786 -0.042885 -0.092097
v 0.122891 -0.018780 -0.092097
v 0.065857 0.014149 -0.092097
v 0.065857 -0.042885 -0.026240
v 0.065857 -0.051708 -0.092097
v 0.065857 0.014149 -0.092097
v 0.131715 0.014149 -0.092097
v 0.122891 0.014149 -0.026240
v 0.065857 0.014149 -0.092097
v 0.122891 -0.018780 -0.092097
v 0.131715 0.014149 -0.092097
v 0.065857 0.080006 -0.092097
v 0.098786 0.071183 -0.092097
v 0.065857 0.071183 -0.026240
v 0.065857 0.071183 -0.026240
v 0.106186 0.047078 -0.011439
v 0.065857 0.047078 0.021971
v 0.065857 0.071183 -0.026240
v 0.098786 0.071183 -0.092097
v 0.106186 0.047078 -0.011439
v 0.098786 0.071183 -0.092097
v 0.122891 0.047078 -0.092097
v 0.106186 0.047078 -0.011439
v 0.065857 0.047078 0.021971
v 0.098786 0.014149 0.021971
v 0.065857 0.014149 0.039617
v 0.065857 0.047078 0.021971
v 0.106186 0.047078 -0.011439
v 0.098786 0.014149 0.021971
v 0.106186 0.047078 -0.011439
v 0.122891 0.014149 -0.026240
v 0.098786 0.014149 0.021971
v 0.106186 0.047078 -0.011439
v 0.122891 0.047078 -0.092097
v 0.122891 0.014149 -0.026240
v 0.122891 0.047078 -0.092097
v 0.131715 0.014149 -0.092097
v 0.122891 0.014149 -0.026240
v 0.065857 0.014149 -0.092097
v 0.065857 0.080006 -0.092097
v 0.065857 0.071183 -0.026240
v 0.065857 0.014149 -0.092097
v 0.008823 0.014149 -0.026240
v 0.032929 0.014149 0.021971
v 0.065857 0.014149 -0.092097
v 0.008823 0.047078 -0.092097
v 0.000000 0.014149 -0.092097
v 0.065857 0.014149 -0.092097
v 0.065857 0.014149 0.039617
v 0.065857 0.047078 0.021971
v 0.065857 0.014149 -0.092097
v 0.032929 0.014149 0.021971
v 0.065857 0.014149 0.039617
v 0.065857 0.014149 0.039617
v 0.098786 0.014149 0.021971
v 0.065857 -0.018780 0.021971
v 0.065857 -0.018780 0.021971
v 0.106186 -0.026180 -0.026240
v 0.065857 -0.042885 -0.026240
v 0.065857 -0.018780 0.021971
v 0.098786 0.014149 0.021971
v 0.106186 -0.026180 -0.026240
v 0.098786 0.014149 0.021971
v 0.122891 0.014149 -0.026240
v 0.106186 -0.026180 -0.026240
v 0.065857 -0.042885 -0.026240
v 0.098786 -0.042885 -0.092097
v 0.065857 -0.051708 -0.092097
v 0.065857 -0.042885 -0.026240
v 0.106186 -0.026180 -0.026240
v 0.098786 -0.042885 -0.092097
v 0.106186 -0.026180 -0.026240
v 0.122891 -0.018780 -0.092097
v 0.098786 -0.042885 -0.092097
v 0.106186 -0.026180 -0.026240
v 0.122891 0.014149 -0.026240
v 0.122891 -0.018780 -0.092097
v 0.122891 0.014149 -0.026240
v 0.131715 0.014149 -0.092097
v 0.122891 -0.018780 -0.092097
v 0.065857 0.014149 -0.092097
v 0.065857 0.014149 0.039617
v 0.065857 -0.018780 0.021971
v 0.065857 0.014149 -0.092097
v 0.098786 0.014149 0.021971
v 0.065857 0.014149 0.039617
v 0.065857 0.014149 -0.092097
v 0.065857 -0.051708 -0.092097
v 0.098786 -0.042885 -0.092097
v 0.065857 0.014149 -0.092097
v 0.065857 -0.051708 -0.092097
v 0.065857 -0.042885 -0.026240
v 0.065857 0.014149 -0.092097
v 0.032929 -0.042885 -0.092097
v 0.065857 -0.051708 -0.092097
v 0.065857 0.080006 -0.092097
v 0.065857 0.071183 -0.026240
v 0.032929 0.071183 -0.092097
v 0.032929 0.071183 -0.092097
v 0.025528 0.047078 -0.011439
v 0.008823 0.047078 -0.092097
v 0.032929 0.071183 -0.092097
v 0.065857 0.071183 -0.026240
v 0.025528 0.047078 -0.011439
v 0.065857 0.071183 -0.026240
v 0.065857 0.047078 0.021971
v 0.025528 0.047078 -0.011439
v 0.008823 0.047078 -0.092097
v 0.008823 0.014149 -0.026240
v 0.000000 0.014149 -0.092097
v 0.008823 0.047078 -0.092097
v 0.025528 0.047078 -0.011439
v 0.008823 0.014149 -0.026240
v 0.025528 0.047078 -0.011439
v 0.032929 0.014149 0.021971
v 0.008823 0.014149 -0.026240
v 0.025528 0.047078 -0.011439
v 0.065857 0.047078 0.021971
v 0.032929 0.014149 0.021971
v 0.065857 0.047078 0.021971
v 0.065857 0.014149 0.039617
v 0.032929 0.014149 0.021971
v 0.065857 0.014149 -0.092097
v 0.065857 0.080006 -0.092097
v 0.032929 0.071183 -0.092097
v 0.065857 0.014149 -0.092097
v 0.065857 0.071183 -0.026240
v 0.065857 0.080006 -0.092097
v 0.065857 0.014149 -0.092097
v 0.000000 0.014149 -0.092097
v 0.008823 0.014149 -0.026240
v 0.065857 0.014149 -0.092097
v 0.032929 0.071183 -0.092097
v 0.008823 0.047078 -0.092097
v 0.065857 0.014149 -0.092097
v 0.065857 0.047078 0.021971
v 0.065857 0.071183 -0.026240
v 0.065857 0.014149 0.039617
v 0.065857 -0.018780 0.021971
v 0.032929 0.014149 0.021971
v 0.032929 0.014149 0.021971
v 0.025528 -0.026180 -0.026240
v 0.008823 0.014149 -0.026240
v 0.032929 0.014149 0.021971
v 0.065857 -0.018780 0.021971
v 0.025528 -0.026180 -0.026240
v 0.065857 -0.018780 0.021971
v 0.065857 -0.042885 -0.026240
v 0.025528 -0.026180 -0.026240
v 0.008823 0.014149 -0.026240
v 0.008823 -0.018780 -0.092097
v 0.000000 0.014149 -0.092097
v 0.008823 0.014149 -0.026240
v 0.025528 -0.026180 -0.026240
v 0.008823 -0.018780 -0.092097
v 0.025528 -0.026180 -0.026240
v 0.032929 -0.042885 -0.092097
v 0.008823 -0.018780 -0.092097
v 0.025528 -0.026180 -0.026240
v 0.065857 -0.042885 -0.026240
v 0.032929 -0.042885 -0.092097
v 0.065857 -0.042885 -0.026240
v 0.065857 -0.051708 -0.092097
v 0.032929 -0.042885 -0.092097
v 0.065857 0.014149 -0.092097
v 0.065857 0.014149 0.039617
v 0.032929 0.014149 0.021971
v 0.065857 0.014149 -0.092097
v 0.065857 -0.018780 0.021971
v 0.065857 0.014149 0.039617
v 0.065857 0.014149 -0.092097
v 0.000000 0.014149 -0.092097
v 0.008823 -0.018780 -0.092097
v 0.065857 0.014149 -0.092097
v 0.032929 0.014149 0.021971
v 0.008823 0.014149 -0.026240
v 0.065857 0.014149 -0.092097
v 0.065857 -0.042885 -0.026240
v 0.065857 -0.018780 0.021971
v 0.065857 0.014149 -0.092097
v 0.008823 -0.018780 -0.092097
v 0.032929 -0.042885 -0.092097
v 0.065857 0.014149 -0.092097
v 0.008823 0.014149 -0.026240
v 0.000000 0.014149 -0.092097
v 0.065857 0.014149 -0.296358
v 0.122891 -0.018780 -0.092097
v 0.131715 0.014149 -0.092097
v 0.065857 0.014149 -0.092097
v 0.131715 0.014149 -0.092097
v 0.122891 -0.018780 -0.092097
v 0.065857 0.014149 -0.296358
v 0.098786 -0.042885 -0.092097
v 0.122891 -0.018780 -0.092097
v 0.065857 0.014149 -0.092097
v 0.122891 -0.018780 -0.092097
v 0.098786 -0.042885 -0.092097
v 0.065857 0.014149 -0.296358
v 0.065857 -0.051708 -0.092097
v 0.098786 -0.042885 -0.092097
v 0.065857 0.014149 -0.092097
v 0.098786 -0.042885 -0.092097
v 0.065857 -0.051708 -0.092097
v 0.065857 0.014149 -0.296358
v 0.131715 0.014149 -0.092097
v 0.065857 0.014149 -0.092097
v 0.065857 0.014149 -0.296358
v 0.065857 0.014149 -0.092097
v 0.065857 -0.051708 -0.092097
v 0.065857 0.013892 -0.296358
v 0.098786 0.070926 -0.092097
v 0.065857 0.079749 -0.092097
v 0.065857 0.013892 -0.092097
v 0.065857 0.079749 -0.092097
v 0.098786 0.070926 -0.092097
v 0.065857 0.013892 -0.296358
v 0.122891 0.046820 -0.092097
v 0.098786 0.070926 -0.092097
v 0.065857 0.013892 -0.092097
v 0.098786 0.070926 -0.092097
v 0.122891 0.046820 -0.092097
v 0.065857 0.013892 -0.296358
v 0.131715 0.013892 -0.092097
v 0.122891 0.046820 -0.092097
v 0.065857 0.013892 -0.092097
v 0.122891 0.046820 -0.092097
v 0.131715 0.013892 -0.092097
v 0.065857 0.013892 -0.296358
v 0.065857 0.079749 -0.092097
v 0.065857 0.013892 -0.092097
v 0.065857 0.013892 -0.296358
v 0.065857 0.013892 -0.092097
v 0.131715 0.013892 -0.092097
v 0.065857 0.014149 -0.296358
v 0.032929 -0.042885 -0.092097
v 0.065857 -0.051708 -0.092097
v 0.065857 0.014149 -0.092097
v 0.065857 -0.051708 -0.092097
v 0.032929 -0.042885 -0.092097
v 0.065857 0.014149 -0.296358
v 0.008823 -0.018780 -0.092097
v 0.032929 -0.042885 -0.092097
v 0.065857 0.014149 -0.092097
v 0.032929 -0.042885 -0.092097
v 0.008823 -0.018780 -0.092097
v 0.065857 0.014149 -0.296358
v 0.000000 0.014149 -0.092097
v 0.008823 -0.018780 -0.092097
v 0.065857 0.014149 -0.092097
v 0.008823 -0.018780 -0.092097
v 0.000000 0.014149 -0.092097
v 0.065857 0.014149 -0.296358
v 0.065857 -0.051708 -0.092097
v 0.065857 0.014149 -0.092097
v 0.065857 0.014149 -0.296358
v 0.065857 0.014149 -0.092097
v 0.000000 0.014149 -0.092097
v 0.065857 0.014149 -0.296358
v 0.008823 0.047078 -0.092097
v 0.000000 0.014149 -0.092097
v 0.065857 0.014149 -0.092097
v 0.000000 0.014149 -0.092097
v 0.008823 0.047078 -0.092097
v 0.065857 0.014149 -0.296358
v 0.032929 0.071183 -0.092097
v 0.008823 0.047078 -0.092097
v 0.065857 0.014149 -0.092097
v 0.008823 0.047078 -0.092097
v 0.032929 0.071183 -0.092097
v 0.065857 0.014149 -0.296358
v 0.065857 0.080006 -0.092097
v 0.032929 0.071183 -0.092097
v 0.065857 0.014149 -0.092097
v 0.032929 0.071183 -0.092097
v 0.065857 0.080006 -0.092097
v 0.065857 0.014149 -0.296358
v 0.000000 0.014149 -0.092097
v 0.065857 0.014149 -0.092097
v 0.065857 0.014149 -0.296358
v 0.065857 0.014149 -0.092097
v 0.065857 0.080006 -0.092097
vn -0.000000 0.000000 -1.000000
vn -0.000000 -1.000000 -0.000000
vn -1.000000 0.000000 0.000000
vn -0.000000 1.000000 0.000000
vn 1.000000 0.000000 0.000000
vn 0.000000 -0.000000 1.000000
vn 0.256700 0.957900 0.128300
vn 0.347400 0.838700 0.419400
vn 0.439800 0.870800 0.219900
vn 0.699600 0.699600 0.144900
vn 0.427100 0.427100 0.797000
vn 0.537800 0.537800 0.649200
vn 0.867200 0.245000 0.433600
vn 0.907400 0.375800 0.187900
vn 0.957900 0.256700 0.128300
vn 0.427100 -0.427100 0.797000
vn 0.347400 -0.838700 0.419400
vn 0.579200 -0.579200 0.573500
vn 0.838700 -0.347400 0.419400
vn 0.256700 -0.957900 0.128300
vn 0.375800 -0.907400 0.187900
vn 0.703600 -0.703600 0.099400
vn 0.907400 -0.375800 0.187900
vn 0.957900 -0.256700 0.128300
vn -0.256700 0.957900 0.128300
vn -0.699600 0.699600 0.144900
vn -0.439800 0.870800 0.219900
vn -0.347400 0.838700 0.419400
vn -0.957900 0.256700 0.128300
vn -0.907400 0.375800 0.187900
vn -0.867200 0.245000 0.433600
vn -0.537800 0.537800 0.649200
vn -0.427100 0.427100 0.797000
vn -0.427100 -0.427100 0.797000
vn -0.838700 -0.347400 0.419400
vn -0.579200 -0.579200 0.573500
vn -0.347400 -0.838700 0.419400
vn -0.957900 -0.256700 0.128300
vn -0.907400 -0.375800 0.187900
vn -0.703600 -0.703600 0.099400
vn -0.375800 -0.907400 0.187900
vn -0.256700 -0.957900 0.128300
vn 0.922200 -0.247100 -0.297300
vn 0.675100 -0.675100 -0.297300
vn 0.247100 -0.922200 -0.297300
vn 0.247100 0.922200 -0.297300
vn 0.675100 0.675100 -0.297300
vn 0.922200 0.247100 -0.297300
vn -0.247100 -0.922200 -0.297300
vn -0.675100 -0.675100 -0.297300
vn -0.922200 -0.247100 -0.297300
vn -0.922200 0.247100 -0.297300
vn -0.675100 0.675100 -0.297300
vn -0.247100 0.922200 -0.297300
usemtl lmat_9f00ffff
s off
f 3//1 2//1 1//1
f 6//2 5//2 4//2
f 9//3 8//3 7//3
f 12//1 11//1 10//1
f 15//2 14//2 13//2
f 18//3 17//3 16//3
f 21//1 20//1 19//1
f 24//2 23//2 22//2
f 27//3 26//3 25//3
f 30//4 29//4 28//4
f 33//1 32//1 31//1
f 36//3 35//3 34//3
f 39//4 38//4 37//4
f 42//1 41//1 40//1
f 72//3 71//3 70//3
f 75//2 74//2 73//2
f 78//1 77//1 76//1
f 81//5 80//5 79//5
f 84//2 83//2 82//2
f 114//3 113//3 112//3
f 117//4 116//4 115//4
f 120//1 119//1 118//1
f 123//5 122//5 121//5
f 126//1 125//1 124//1
f 156//1 155//1 154//1
f 159//5 158//5 157//5
f 162//2 161//2 160//2
f 165//1 164//1 163//1
f 168//5 167//5 166//5
f 198//4 197//4 196//4
f 201//5 200//5 199//5
f 204//1 203//1 202//1
f 207//4 206//4 205//4
f 210//5 209//5 208//5
f 213//1 212//1 211//1
f 216//4 215//4 214//4
f 222//6 221//6 220//6
f 228//6 227//6 226//6
f 234//6 233//6 232//6
f 237//4 236//4 235//4
f 240//3 239//3 238//3
f 246//6 245//6 244//6
f 252//6 251//6 250//6
f 258//6 257//6 256//6
f 261//3 260//3 259//3
f 264//2 263//2 262//2
f 270//6 269//6 268//6
f 276//6 275//6 274//6
f 282//6 281//6 280//6
f 285//5 284//5 283//5
f 288//4 287//4 286//4
f 294//6 293//6 292//6
f 300//6 299//6 298//6
f 306//6 305//6 304//6
f 309//2 308//2 307//2
f 312//5 311//5 310//5
s 1
f 45//7 44//7 43//7
f 48//8 47//8 46//8
f 51//9 50//9 49//9
f 54//10 53//10 52//10
f 57//11 56//11 55//11
f 60//12 59//12 58//12
f 63//13 62//13 61//13
f 66//14 65//14 64//14
f 69//15 68//15 67//15
f 87//16 86//16 85//16
f 90//17 89//17 88//17
f 93//18 92//18 91//18
f 96//19 95//19 94//19
f 99//20 98//20 97//20
f 102//21 101//21 100//21
f 105//22 104//22 103//22
f 108//23 107//23 106//23
f 111//24 110//24 109//24
f 129//25 128//25 127//25
f 132//26 131//26 130//26
f 135//27 134//27 133//27
f 138//28 137//28 136//28
f 141//29 140//29 139//29
f 144//30 143//30 142//30
f 147//31 146//31 145//31
f 150//32 149//32 148//32
f 153//33 152//33 151//33
f 171//34 170//34 169//34
f 174//35 173//35 172//35
f 177//36 176//36 175//36
f 180//37 179//37 178//37
f 183//38 182//38 181//38
f 186//39 185//39 184//39
f 189//40 188//40 187//40
f 192//41 191//41 190//41
f 195//42 194//42 193//42
f 219//43 218//43 217//43
f 225//44 224//44 223//44
f 231//45 230//45 229//45
f 243//46 242//46 241//46
f 249//47 248//47 247//47
f 255//48 254//48 253//48
f 267//49 266//49 265//49
f 273//50 272//50 271//50
f 279//51 278//51 277//51
f 291//52 290//52 289//52
f 297//53 296//53 295//53
f 303//54 302//54 301//54
