# Blender v2.74 (sub 0) OBJ File: ''
# www.blender.org
mtllib Bullet.mtl
o the_node.005_tri_240_geometry
v -0.006000 -0.000804 0.009000
v 0.006000 -0.000804 0.009000
v 0.006000 -0.003000 0.011196
v 0.006000 -0.003000 0.011196
v -0.006000 -0.003000 0.011196
v -0.006000 -0.000804 0.009000
v -0.006000 -0.003000 0.011196
v 0.006000 -0.003000 0.011196
v 0.006000 -0.006000 0.012000
v 0.006000 -0.006000 0.012000
v -0.006000 -0.006000 0.012000
v -0.006000 -0.003000 0.011196
v 0.006000 -0.006000 0.006000
v 0.006000 -0.000000 0.006000
v -0.006000 -0.000000 0.006000
v -0.006000 -0.000000 0.006000
v -0.006000 -0.006000 0.006000
v 0.006000 -0.006000 0.006000
v -0.006000 -0.006000 0.006000
v -0.006000 -0.006000 0.012000
v 0.006000 -0.006000 0.012000
v 0.006000 -0.006000 0.012000
v 0.006000 -0.006000 0.006000
v -0.006000 -0.006000 0.006000
v 0.006000 -0.000804 0.003000
v -0.006000 -0.000804 0.003000
v -0.006000 -0.003000 0.000804
v -0.006000 -0.003000 0.000804
v 0.006000 -0.003000 0.000804
v 0.006000 -0.000804 0.003000
v 0.006000 -0.003000 0.000804
v -0.006000 -0.003000 0.000804
v -0.006000 -0.006000 -0.000000
v -0.006000 -0.006000 -0.000000
v 0.006000 -0.006000 -0.000000
v 0.006000 -0.003000 0.000804
v -0.006000 -0.006000 0.006000
v -0.006000 -0.000000 0.006000
v 0.006000 -0.000000 0.006000
v 0.006000 -0.000000 0.006000
v 0.006000 -0.006000 0.006000
v -0.006000 -0.006000 0.006000
v 0.006000 -0.006000 0.006000
v 0.006000 -0.006000 -0.000000
v -0.006000 -0.006000 -0.000000
v -0.006000 -0.006000 -0.000000
v -0.006000 -0.006000 0.006000
v 0.006000 -0.006000 0.006000
v -0.006000 -0.006000 0.006000
v -0.006000 -0.000000 0.006000
v -0.006000 -0.000804 0.009000
v 0.006000 -0.006000 0.006000
v 0.006000 -0.000804 0.009000
v 0.006000 -0.000000 0.006000
v -0.006000 -0.006000 0.006000
v -0.006000 -0.000804 0.009000
v -0.006000 -0.003000 0.011196
v 0.006000 -0.006000 0.006000
v 0.006000 -0.003000 0.011196
v 0.006000 -0.000804 0.009000
v -0.006000 -0.006000 0.006000
v -0.006000 -0.003000 0.011196
v -0.006000 -0.006000 0.012000
v 0.006000 -0.006000 0.006000
v 0.006000 -0.006000 0.012000
v 0.006000 -0.003000 0.011196
v -0.006000 -0.000000 0.006000
v 0.006000 -0.000000 0.006000
v 0.006000 -0.000804 0.009000
v 0.006000 -0.000804 0.009000
v -0.006000 -0.000804 0.009000
v -0.006000 -0.000000 0.006000
v 0.006000 -0.009000 0.000804
v -0.006000 -0.009000 0.000804
v -0.006000 -0.011196 0.003000
v -0.006000 -0.011196 0.003000
v 0.006000 -0.011196 0.003000
v 0.006000 -0.009000 0.000804
v 0.006000 -0.011196 0.003000
v -0.006000 -0.011196 0.003000
v -0.006000 -0.012000 0.006000
v -0.006000 -0.012000 0.006000
v 0.006000 -0.012000 0.006000
v 0.006000 -0.011196 0.003000
v -0.006000 -0.006000 0.006000
v -0.006000 -0.006000 -0.000000
v 0.006000 -0.006000 -0.000000
v 0.006000 -0.006000 -0.000000
v 0.006000 -0.006000 0.006000
v -0.006000 -0.006000 0.006000
v 0.006000 -0.006000 0.006000
v 0.006000 -0.012000 0.006000
v -0.006000 -0.012000 0.006000
v -0.006000 -0.012000 0.006000
v -0.006000 -0.006000 0.006000
v 0.006000 -0.006000 0.006000
v 0.006000 -0.006000 0.006000
v 0.006000 -0.000000 0.006000
v 0.006000 -0.000804 0.003000
v -0.006000 -0.006000 0.006000
v -0.006000 -0.000804 0.003000
v -0.006000 -0.000000 0.006000
v 0.006000 -0.006000 0.006000
v 0.006000 -0.000804 0.003000
v 0.006000 -0.003000 0.000804
v -0.006000 -0.006000 0.006000
v -0.006000 -0.003000 0.000804
v -0.006000 -0.000804 0.003000
v 0.006000 -0.006000 0.006000
v 0.006000 -0.003000 0.000804
v 0.006000 -0.006000 -0.000000
v -0.006000 -0.006000 0.006000
v -0.006000 -0.006000 -0.000000
v -0.006000 -0.003000 0.000804
v 0.006000 -0.000000 0.006000
v -0.006000 -0.000000 0.006000
v -0.006000 -0.000804 0.003000
v -0.006000 -0.000804 0.003000
v 0.006000 -0.000804 0.003000
v 0.006000 -0.000000 0.006000
v -0.006000 -0.006000 0.006000
v -0.021588 -0.006000 0.009000
v -0.024000 -0.006000 0.006000
v -0.006000 -0.006000 0.006000
v -0.006000 -0.012000 0.006000
v -0.006000 -0.011196 0.009000
v -0.006000 -0.006000 0.006000
v -0.021588 -0.009000 0.006000
v -0.015000 -0.011196 0.006000
v -0.006000 -0.006000 0.006000
v -0.015000 -0.006000 0.011196
v -0.021588 -0.006000 0.009000
v -0.006000 -0.006000 0.006000
v -0.006000 -0.011196 0.009000
v -0.006000 -0.009000 0.011196
v -0.006000 -0.006000 0.006000
v -0.015000 -0.011196 0.006000
v -0.006000 -0.012000 0.006000
v -0.006000 -0.006000 0.006000
v -0.006000 -0.006000 0.012000
v -0.015000 -0.006000 0.011196
v -0.006000 -0.006000 0.006000
v -0.006000 -0.009000 0.011196
v -0.006000 -0.006000 0.012000
v 0.006000 -0.006000 0.006000
v 0.006000 -0.006000 -0.000000
v 0.006000 -0.009000 0.000804
v -0.006000 -0.006000 0.006000
v -0.006000 -0.009000 0.000804
v -0.006000 -0.006000 -0.000000
v 0.006000 -0.006000 0.006000
v 0.006000 -0.009000 0.000804
v 0.006000 -0.011196 0.003000
v -0.006000 -0.006000 0.006000
v -0.006000 -0.011196 0.003000
v -0.006000 -0.009000 0.000804
v 0.006000 -0.006000 0.006000
v 0.006000 -0.011196 0.003000
v 0.006000 -0.012000 0.006000
v -0.006000 -0.006000 0.006000
v -0.006000 -0.012000 0.006000
v -0.006000 -0.011196 0.003000
v 0.006000 -0.006000 -0.000000
v -0.006000 -0.006000 -0.000000
v -0.006000 -0.009000 0.000804
v -0.006000 -0.009000 0.000804
v 0.006000 -0.009000 0.000804
v 0.006000 -0.006000 -0.000000
v -0.006000 -0.006000 0.006000
v -0.021588 -0.006000 0.003000
v -0.015000 -0.006000 0.000804
v -0.006000 -0.006000 0.006000
v -0.015000 -0.011196 0.006000
v -0.021588 -0.009000 0.006000
v -0.006000 -0.006000 0.006000
v -0.006000 -0.009000 0.000804
v -0.006000 -0.011196 0.003000
v -0.006000 -0.006000 0.006000
v -0.015000 -0.006000 0.000804
v -0.006000 -0.006000 -0.000000
v -0.006000 -0.006000 0.006000
v -0.006000 -0.012000 0.006000
v -0.015000 -0.011196 0.006000
v -0.006000 -0.006000 0.006000
v -0.006000 -0.011196 0.003000
v -0.006000 -0.012000 0.006000
v -0.024000 -0.006000 0.006000
v -0.021588 -0.006000 0.009000
v -0.021588 -0.009000 0.006000
v -0.021588 -0.009000 0.006000
v -0.015000 -0.009674 0.009674
v -0.015000 -0.011196 0.006000
v -0.021588 -0.009000 0.006000
v -0.021588 -0.006000 0.009000
v -0.015000 -0.009674 0.009674
v -0.021588 -0.006000 0.009000
v -0.015000 -0.006000 0.011196
v -0.015000 -0.009674 0.009674
v -0.015000 -0.011196 0.006000
v -0.006000 -0.011196 0.009000
v -0.006000 -0.012000 0.006000
v -0.015000 -0.011196 0.006000
v -0.015000 -0.009674 0.009674
v -0.006000 -0.011196 0.009000
v -0.015000 -0.009674 0.009674
v -0.006000 -0.009000 0.011196
v -0.006000 -0.011196 0.009000
v -0.015000 -0.009674 0.009674
v -0.015000 -0.006000 0.011196
v -0.006000 -0.009000 0.011196
v -0.015000 -0.006000 0.011196
v -0.006000 -0.006000 0.012000
v -0.006000 -0.009000 0.011196
v -0.006000 -0.006000 0.006000
v -0.024000 -0.006000 0.006000
v -0.021588 -0.009000 0.006000
v 0.006000 -0.006000 0.006000
v 0.006000 -0.006000 0.012000
v -0.006000 -0.006000 0.012000
v -0.006000 -0.006000 0.012000
v -0.006000 -0.006000 0.006000
v 0.006000 -0.006000 0.006000
v -0.006000 -0.006000 0.006000
v -0.006000 -0.012000 0.006000
v 0.006000 -0.012000 0.006000
v 0.006000 -0.012000 0.006000
v 0.006000 -0.006000 0.006000
v -0.006000 -0.006000 0.006000
v -0.024000 -0.006000 0.006000
v -0.021588 -0.009000 0.006000
v -0.021588 -0.006000 0.003000
v -0.021588 -0.006000 0.003000
v -0.015000 -0.009674 0.002326
v -0.015000 -0.006000 0.000804
v -0.021588 -0.006000 0.003000
v -0.021588 -0.009000 0.006000
v -0.015000 -0.009674 0.002326
v -0.021588 -0.009000 0.006000
v -0.015000 -0.011196 0.006000
v -0.015000 -0.009674 0.002326
v -0.015000 -0.006000 0.000804
v -0.006000 -0.009000 0.000804
v -0.006000 -0.006000 -0.000000
v -0.015000 -0.006000 0.000804
v -0.015000 -0.009674 0.002326
v -0.006000 -0.009000 0.000804
v -0.015000 -0.009674 0.002326
v -0.006000 -0.011196 0.003000
v -0.006000 -0.009000 0.000804
v -0.015000 -0.009674 0.002326
v -0.015000 -0.011196 0.006000
v -0.006000 -0.011196 0.003000
v -0.015000 -0.011196 0.006000
v -0.006000 -0.012000 0.006000
v -0.006000 -0.011196 0.003000
v -0.006000 -0.006000 0.006000
v -0.024000 -0.006000 0.006000
v -0.021588 -0.006000 0.003000
v -0.006000 -0.006000 0.006000
v -0.021588 -0.009000 0.006000
v -0.024000 -0.006000 0.006000
v -0.006000 -0.006000 0.006000
v -0.006000 -0.006000 -0.000000
v -0.006000 -0.009000 0.000804
v -0.006000 -0.006000 0.006000
v -0.006000 -0.003000 0.011196
v -0.006000 -0.000804 0.009000
v -0.006000 -0.006000 0.006000
v -0.015000 -0.006000 0.011196
v -0.006000 -0.006000 0.012000
v -0.006000 -0.006000 0.006000
v -0.006000 -0.000000 0.006000
v -0.015000 -0.000804 0.006000
v -0.006000 -0.006000 0.006000
v -0.006000 -0.000804 0.009000
v -0.006000 -0.000000 0.006000
v -0.006000 -0.006000 0.006000
v -0.006000 -0.006000 0.012000
v -0.006000 -0.009000 0.011196
v 0.006000 -0.006000 0.006000
v 0.006000 -0.009000 0.011196
v 0.006000 -0.006000 0.012000
v -0.006000 -0.006000 0.006000
v -0.006000 -0.009000 0.011196
v -0.006000 -0.011196 0.009000
v 0.006000 -0.006000 0.006000
v 0.006000 -0.011196 0.009000
v 0.006000 -0.009000 0.011196
v -0.006000 -0.006000 0.006000
v -0.006000 -0.011196 0.009000
v -0.006000 -0.012000 0.006000
v 0.006000 -0.006000 0.006000
v 0.006000 -0.012000 0.006000
v 0.006000 -0.011196 0.009000
v -0.006000 -0.006000 0.012000
v 0.006000 -0.006000 0.012000
v 0.006000 -0.009000 0.011196
v 0.006000 -0.009000 0.011196
v -0.006000 -0.009000 0.011196
v -0.006000 -0.006000 0.012000
v -0.006000 -0.009000 0.011196
v 0.006000 -0.009000 0.011196
v 0.006000 -0.011196 0.009000
v 0.006000 -0.011196 0.009000
v -0.006000 -0.011196 0.009000
v -0.006000 -0.009000 0.011196
v -0.006000 -0.011196 0.009000
v 0.006000 -0.011196 0.009000
v 0.006000 -0.012000 0.006000
v 0.006000 -0.012000 0.006000
v -0.006000 -0.012000 0.006000
v -0.006000 -0.011196 0.009000
v -0.006000 -0.006000 0.006000
v -0.006000 -0.006000 -0.000000
v -0.015000 -0.006000 0.000804
v -0.006000 -0.006000 0.006000
v -0.006000 -0.003000 0.000804
v -0.006000 -0.006000 -0.000000
v -0.024000 -0.006000 0.006000
v -0.021588 -0.003000 0.006000
v -0.021588 -0.006000 0.009000
v -0.021588 -0.006000 0.009000
v -0.015000 -0.002326 0.009674
v -0.015000 -0.006000 0.011196
v -0.021588 -0.006000 0.009000
v -0.021588 -0.003000 0.006000
v -0.015000 -0.002326 0.009674
v -0.021588 -0.003000 0.006000
v -0.015000 -0.000804 0.006000
v -0.015000 -0.002326 0.009674
v -0.015000 -0.006000 0.011196
v -0.006000 -0.003000 0.011196
v -0.006000 -0.006000 0.012000
v -0.015000 -0.006000 0.011196
v -0.015000 -0.002326 0.009674
v -0.006000 -0.003000 0.011196
v -0.015000 -0.002326 0.009674
v -0.006000 -0.000804 0.009000
v -0.006000 -0.003000 0.011196
v -0.015000 -0.002326 0.009674
v -0.015000 -0.000804 0.006000
v -0.006000 -0.000804 0.009000
v -0.015000 -0.000804 0.006000
v -0.006000 -0.000000 0.006000
v -0.006000 -0.000804 0.009000
v -0.006000 -0.006000 0.006000
v -0.024000 -0.006000 0.006000
v -0.021588 -0.006000 0.009000
v -0.006000 -0.006000 0.006000
v -0.021588 -0.003000 0.006000
v -0.024000 -0.006000 0.006000
v -0.006000 -0.006000 0.006000
v -0.006000 -0.006000 0.012000
v -0.006000 -0.003000 0.011196
v -0.006000 -0.006000 0.006000
v -0.021588 -0.006000 0.009000
v -0.015000 -0.006000 0.011196
v -0.006000 -0.006000 0.006000
v -0.015000 -0.000804 0.006000
v -0.021588 -0.003000 0.006000
v -0.024000 -0.006000 0.006000
v -0.021588 -0.006000 0.003000
v -0.021588 -0.003000 0.006000
v -0.021588 -0.003000 0.006000
v -0.015000 -0.002326 0.002326
v -0.015000 -0.000804 0.006000
v -0.021588 -0.003000 0.006000
v -0.021588 -0.006000 0.003000
v -0.015000 -0.002326 0.002326
v -0.021588 -0.006000 0.003000
v -0.015000 -0.006000 0.000804
v -0.015000 -0.002326 0.002326
v -0.015000 -0.000804 0.006000
v -0.006000 -0.000804 0.003000
v -0.006000 -0.000000 0.006000
v -0.015000 -0.000804 0.006000
v -0.015000 -0.002326 0.002326
v -0.006000 -0.000804 0.003000
v -0.015000 -0.002326 0.002326
v -0.006000 -0.003000 0.000804
v -0.006000 -0.000804 0.003000
v -0.015000 -0.002326 0.002326
v -0.015000 -0.006000 0.000804
v -0.006000 -0.003000 0.000804
v -0.015000 -0.006000 0.000804
v -0.006000 -0.006000 -0.000000
v -0.006000 -0.003000 0.000804
v -0.006000 -0.006000 0.006000
v -0.024000 -0.006000 0.006000
v -0.021588 -0.003000 0.006000
v -0.006000 -0.006000 0.006000
v -0.021588 -0.006000 0.003000
v -0.024000 -0.006000 0.006000
v -0.006000 -0.006000 0.006000
v -0.006000 -0.000000 0.006000
v -0.006000 -0.000804 0.003000
v -0.006000 -0.006000 0.006000
v -0.021588 -0.003000 0.006000
v -0.015000 -0.000804 0.006000
v -0.006000 -0.006000 0.006000
v -0.015000 -0.006000 0.000804
v -0.021588 -0.006000 0.003000
v -0.006000 -0.006000 0.006000
v -0.006000 -0.000804 0.003000
v -0.006000 -0.003000 0.000804
v -0.006000 -0.006000 0.006000
v -0.015000 -0.000804 0.006000
v -0.006000 -0.000000 0.006000
vn 0.000000 0.000000 -1.000000
vn 0.000000 -1.000000 -0.000000
vn 0.000000 -0.000000 1.000000
vn -1.000000 -0.000000 0.000000
vn 1.000000 0.000000 0.000000
vn 0.000000 1.000000 0.000000
vn 0.000000 0.707100 0.707100
vn 0.000000 0.258800 0.965900
vn 0.000000 0.707100 -0.707100
vn 0.000000 0.258800 -0.965900
vn 0.000000 0.965900 0.258800
vn 0.000000 -0.707100 -0.707100
vn 0.000000 -0.965900 -0.258800
vn 0.000000 0.965900 -0.258800
vn 0.000000 -0.258800 -0.965900
vn -0.660500 -0.530900 0.530900
vn -0.294300 -0.882900 0.365700
vn -0.422900 -0.640700 0.640700
vn -0.294300 -0.365700 0.882900
vn -0.085900 -0.962300 0.257900
vn -0.126500 -0.916400 0.379600
vn -0.066400 -0.705500 0.705500
vn -0.126500 -0.379600 0.916400
vn -0.085900 -0.257900 0.962300
vn -0.660500 -0.530900 -0.530900
vn -0.294300 -0.365700 -0.882900
vn -0.422900 -0.640700 -0.640700
vn -0.294300 -0.882900 -0.365700
vn -0.085900 -0.257900 -0.962300
vn -0.126500 -0.379600 -0.916400
vn -0.066400 -0.705500 -0.705500
vn -0.126500 -0.916400 -0.379600
vn -0.085900 -0.962300 -0.257900
vn 0.000000 -0.258800 0.965900
vn 0.000000 -0.707100 0.707100
vn 0.000000 -0.965900 0.258800
vn -0.660500 0.530900 0.530900
vn -0.294300 0.365700 0.882900
vn -0.422900 0.640700 0.640700
vn -0.294300 0.882900 0.365700
vn -0.085900 0.257900 0.962300
vn -0.126500 0.379600 0.916400
vn -0.066400 0.705500 0.705500
vn -0.126500 0.916400 0.379600
vn -0.085900 0.962300 0.257900
vn -0.660500 0.530900 -0.530900
vn -0.294300 0.882900 -0.365700
vn -0.422900 0.640700 -0.640700
vn -0.294300 0.365700 -0.882900
vn -0.085900 0.962300 -0.257900
vn -0.126500 0.916400 -0.379600
vn -0.066400 0.705500 -0.705500
vn -0.126500 0.379600 -0.916400
vn -0.085900 0.257900 -0.962300
usemtl lmat_ffcb6600
s off
f 15//1 14//1 13//1
f 18//1 17//1 16//1
f 21//2 20//2 19//2
f 24//2 23//2 22//2
f 39//3 38//3 37//3
f 42//3 41//3 40//3
f 45//2 44//2 43//2
f 48//2 47//2 46//2
f 51//4 50//4 49//4
f 54//5 53//5 52//5
f 57//4 56//4 55//4
f 60//5 59//5 58//5
f 63//4 62//4 61//4
f 66//5 65//5 64//5
f 87//6 86//6 85//6
f 90//6 89//6 88//6
f 93//3 92//3 91//3
f 96//3 95//3 94//3
f 99//5 98//5 97//5
f 102//4 101//4 100//4
f 105//5 104//5 103//5
f 108//4 107//4 106//4
f 111//5 110//5 109//5
f 114//4 113//4 112//4
f 123//6 122//6 121//6
f 126//5 125//5 124//5
f 129//1 128//1 127//1
f 132//6 131//6 130//6
f 135//5 134//5 133//5
f 138//1 137//1 136//1
f 141//6 140//6 139//6
f 144//5 143//5 142//5
f 147//5 146//5 145//5
f 150//4 149//4 148//4
f 153//5 152//5 151//5
f 156//4 155//4 154//4
f 159//5 158//5 157//5
f 162//4 161//4 160//4
f 171//6 170//6 169//6
f 174//3 173//3 172//3
f 177//5 176//5 175//5
f 180//6 179//6 178//6
f 183//3 182//3 181//3
f 186//5 185//5 184//5
f 216//1 215//1 214//1
f 219//6 218//6 217//6
f 222//6 221//6 220//6
f 225//1 224//1 223//1
f 228//1 227//1 226//1
f 258//6 257//6 256//6
f 261//3 260//3 259//3
f 264//5 263//5 262//5
f 267//5 266//5 265//5
f 270//2 269//2 268//2
f 273//1 272//1 271//1
f 276//5 275//5 274//5
f 279//4 278//4 277//4
f 282//5 281//5 280//5
f 285//4 284//4 283//4
f 288//5 287//5 286//5
f 291//4 290//4 289//4
f 294//5 293//5 292//5
f 315//2 314//2 313//2
f 318//5 317//5 316//5
f 348//2 347//2 346//2
f 351//1 350//1 349//1
f 354//5 353//5 352//5
f 357//2 356//2 355//2
f 360//1 359//1 358//1
f 390//3 389//3 388//3
f 393//2 392//2 391//2
f 396//5 395//5 394//5
f 399//3 398//3 397//3
f 402//2 401//2 400//2
f 405//5 404//5 403//5
f 408//3 407//3 406//3
s 1
f 3//7 2//7 1//7
f 6//7 5//7 4//7
f 9//8 8//8 7//8
f 12//8 11//8 10//8
f 27//9 26//9 25//9
f 30//9 29//9 28//9
f 33//10 32//10 31//10
f 36//10 35//10 34//10
f 69//11 68//11 67//11
f 72//11 71//11 70//11
f 75//12 74//12 73//12
f 78//12 77//12 76//12
f 81//13 80//13 79//13
f 84//13 83//13 82//13
f 117//14 116//14 115//14
f 120//14 119//14 118//14
f 165//15 164//15 163//15
f 168//15 167//15 166//15
f 189//16 188//16 187//16
f 192//17 191//17 190//17
f 195//18 194//18 193//18
f 198//19 197//19 196//19
f 201//20 200//20 199//20
f 204//21 203//21 202//21
f 207//22 206//22 205//22
f 210//23 209//23 208//23
f 213//24 212//24 211//24
f 231//25 230//25 229//25
f 234//26 233//26 232//26
f 237//27 236//27 235//27
f 240//28 239//28 238//28
f 243//29 242//29 241//29
f 246//30 245//30 244//30
f 249//31 248//31 247//31
f 252//32 251//32 250//32
f 255//33 254//33 253//33
f 297//34 296//34 295//34
f 300//34 299//34 298//34
f 303//35 302//35 301//35
f 306//35 305//35 304//35
f 309//36 308//36 307//36
f 312//36 311//36 310//36
f 321//37 320//37 319//37
f 324//38 323//38 322//38
f 327//39 326//39 325//39
f 330//40 329//40 328//40
f 333//41 332//41 331//41
f 336//42 335//42 334//42
f 339//43 338//43 337//43
f 342//44 341//44 340//44
f 345//45 344//45 343//45
f 363//46 362//46 361//46
f 366//47 365//47 364//47
f 369//48 368//48 367//48
f 372//49 371//49 370//49
f 375//50 374//50 373//50
f 378//51 377//51 376//51
f 381//52 380//52 379//52
f 384//53 383//53 382//53
f 387//54 386//54 385//54
