# Blender v2.74 (sub 0) OBJ File: ''
# www.blender.org
mtllib Needle.mtl
o the_node_tri_0_geometry
v 0.100000 -0.000000 0.050000
v 0.100000 0.050000 0.050000
v -0.300000 -0.000000 0.100000
v 0.100000 -0.000000 0.050000
v -0.300000 -0.000000 0.100000
v 0.100000 -0.000000 0.100000
v 0.100000 0.050000 0.100000
v 0.100000 -0.000000 0.100000
v -0.300000 -0.000000 0.100000
v 0.100000 0.050000 0.100000
v -0.300000 -0.000000 0.100000
v 0.100000 0.050000 0.050000
v 0.100000 -0.000000 0.050000
v 0.100000 -0.000000 0.100000
v 0.100000 0.050000 0.100000
v 0.100000 0.050000 0.100000
v 0.100000 0.050000 0.050000
v 0.100000 -0.000000 0.050000
v 0.100000 0.050000 0.050000
v 0.500000 0.050000 0.050000
v 0.100000 0.050000 0.100000
v 0.500000 0.050000 0.050000
v 0.100000 -0.000000 0.100000
v 0.100000 0.050000 0.100000
v 0.100000 -0.000000 0.100000
v 0.500000 0.050000 0.050000
v 0.100000 -0.000000 0.050000
v 0.500000 0.050000 0.050000
v 0.100000 0.050000 0.050000
v 0.100000 -0.000000 0.050000
v 0.100000 -0.000000 0.050000
v 0.100000 0.050000 0.050000
v 0.100000 0.050000 0.100000
v 0.100000 0.050000 0.100000
v 0.100000 -0.000000 0.100000
v 0.100000 -0.000000 0.050000
vn -0.124000 0.000000 -0.992300
vn 0.000000 -1.000000 -0.000000
vn 0.000000 -0.000000 1.000000
vn -0.124000 0.992300 0.000000
vn 1.000000 0.000000 0.000000
vn 0.000000 1.000000 0.000000
vn 0.124000 -0.000000 0.992300
vn 0.124000 -0.992300 -0.000000
vn 0.000000 0.000000 -1.000000
vn -1.000000 0.000000 0.000000
usemtl lmat_9fff00ff
s off
f 3//1 2//1 1//1
f 6//2 5//2 4//2
f 9//3 8//3 7//3
f 12//4 11//4 10//4
f 15//5 14//5 13//5
f 18//5 17//5 16//5
f 21//6 20//6 19//6
f 24//7 23//7 22//7
f 27//8 26//8 25//8
f 30//9 29//9 28//9
f 33//10 32//10 31//10
f 36//10 35//10 34//10
